# xmcd CD database file
# Copyright (C) 1993-1998 Ti Kan
#
# Track frame offsets:
#  150
#  21752
#  51020
#  66552
#  81065
#  102865
#  125907
#  140722
#  157660
#  173550
#
# Disc length: 2563 seconds
#
# Revision: 1
# Processed by: cddbd v1.4b41PL1 Copyright (c) Steve Scherf et al.
# Submitted via: CDWizzard Release:4.35
#
DISCID=820a010a
DTITLE=Lee Blaske - Barnyard Christmas
DYEAR=1900
DGENRE=
TTITLE0=Oh Little Town of Nesting Hens
TTITLE1=O Lamb .n Tom
TTITLE2=We Three Holsteins
TTITLE3=A Heigh in The Manger 
TTITLE4=I Saw Three Chicks
TTITLE5=O Come All Mew Faithful
TTITLE6=Bark! The Herald Corgis Sing
TTITLE7=I Wonder as I Waddle 
TTITLE8=The Collie and the Ive
TTITLE9=Jingle Hogs
EXTD=great for small children. . . not much for adults
EXTT0=
EXTT1=
EXTT2=
EXTT3=
EXTT4=
EXTT5=
EXTT6=
EXTT7=
EXTT8=
EXTT9=
PLAYORDER=
